REM DIRINDEX 1\2\6,1\2\7,1\2\8,1\2\9,1\3\10,1\3\11,1\4\12,1\4\13,1\4\14,1\5\15,1\5\16,1\5\17
REM DIRNAME cjc029,folder01,folder02,folder03,folder04,folder05,folder06,folder07,folder08,folder09,folder10,folder11,folder12,folder13,folder14,folder15,folder16
TITLE ""
FILE "1400_2_sec09_0817_0832.mp3" MP3
  TRACK 01 AUDIO
    TITLE "0:"
    INDEX 01 00:00:00
  TRACK 02 AUDIO
    TITLE "13:cjc029_3234"
    INDEX 01 00:00:19
  TRACK 03 AUDIO
    TITLE "0:"
    INDEX 01 00:01:13
  TRACK 04 AUDIO
    TITLE "14:cjc029_3235"
    INDEX 01 00:01:21
  TRACK 05 AUDIO
    TITLE "0:"
    INDEX 01 00:02:24
  TRACK 06 AUDIO
    TITLE "13:cjc029_3236"
    INDEX 01 00:03:04
  TRACK 07 AUDIO
    TITLE "0:"
    INDEX 01 00:04:07
  TRACK 08 AUDIO
    TITLE "14:cjc029_3237"
    INDEX 01 00:04:11
  TRACK 09 AUDIO
    TITLE "0:"
    INDEX 01 00:06:24
  TRACK 10 AUDIO
    TITLE "13:cjc029_3238"
    INDEX 01 00:07:07
  TRACK 11 AUDIO
    TITLE "0:"
    INDEX 01 00:08:21
  TRACK 12 AUDIO
    TITLE "14:cjc029_3239"
    INDEX 01 00:08:24
  TRACK 13 AUDIO
    TITLE "0:"
    INDEX 01 00:12:16
  TRACK 14 AUDIO
    TITLE "13:cjc029_3240"
    INDEX 01 00:12:71
  TRACK 15 AUDIO
    TITLE "0:"
    INDEX 01 00:14:17
  TRACK 16 AUDIO
    TITLE "14:cjc029_3241"
    INDEX 01 00:14:21
  TRACK 17 AUDIO
    TITLE "0:"
    INDEX 01 00:15:25
  TRACK 18 AUDIO
    TITLE "13:cjc029_3242"
    INDEX 01 00:16:04
  TRACK 19 AUDIO
    TITLE "0:"
    INDEX 01 00:17:21
  TRACK 20 AUDIO
    TITLE "14:cjc029_3243"
    INDEX 01 00:17:27
  TRACK 21 AUDIO
    TITLE "0:"
    INDEX 01 00:22:13
  TRACK 22 AUDIO
    TITLE "13:cjc029_3244"
    INDEX 01 00:22:70
  TRACK 23 AUDIO
    TITLE "0:"
    INDEX 01 00:24:10
  TRACK 24 AUDIO
    TITLE "14:cjc029_3245"
    INDEX 01 00:24:18
  TRACK 25 AUDIO
    TITLE "0:"
    INDEX 01 00:25:52
  TRACK 26 AUDIO
    TITLE "13:cjc029_3246"
    INDEX 01 00:26:36
  TRACK 27 AUDIO
    TITLE "0:"
    INDEX 01 00:27:49
  TRACK 28 AUDIO
    TITLE "14:cjc029_3247"
    INDEX 01 00:27:53
  TRACK 29 AUDIO
    TITLE "0:"
    INDEX 01 00:31:39
  TRACK 30 AUDIO
    TITLE "13:cjc029_3248"
    INDEX 01 00:32:21
  TRACK 31 AUDIO
    TITLE "0:"
    INDEX 01 00:33:24
  TRACK 32 AUDIO
    TITLE "14:cjc029_3249"
    INDEX 01 00:33:28
  TRACK 33 AUDIO
    TITLE "0:"
    INDEX 01 00:36:72
  TRACK 34 AUDIO
    TITLE "13:cjc029_3250"
    INDEX 01 00:37:52
  TRACK 35 AUDIO
    TITLE "0:"
    INDEX 01 00:38:65
  TRACK 36 AUDIO
    TITLE "14:cjc029_3251"
    INDEX 01 00:38:69
  TRACK 37 AUDIO
    TITLE "0:"
    INDEX 01 00:41:69
  TRACK 38 AUDIO
    TITLE "13:cjc029_3252"
    INDEX 01 00:42:53
  TRACK 39 AUDIO
    TITLE "0:"
    INDEX 01 00:43:54
  TRACK 40 AUDIO
    TITLE "14:cjc029_3253"
    INDEX 01 00:43:58
  TRACK 41 AUDIO
    TITLE "0:"
    INDEX 01 00:45:06
  TRACK 42 AUDIO
    TITLE "13:cjc029_3254"
    INDEX 01 00:45:65
  TRACK 43 AUDIO
    TITLE "0:"
    INDEX 01 00:46:70
  TRACK 44 AUDIO
    TITLE "14:cjc029_3255"
    INDEX 01 00:46:74
  TRACK 45 AUDIO
    TITLE "0:"
    INDEX 01 00:48:38
  TRACK 46 AUDIO
    TITLE "13:cjc029_3256"
    INDEX 01 00:49:16
  TRACK 47 AUDIO
    TITLE "0:"
    INDEX 01 00:50:19
  TRACK 48 AUDIO
    TITLE "14:cjc029_3257"
    INDEX 01 00:50:25
  TRACK 49 AUDIO
    TITLE "0:"
    INDEX 01 00:52:22
  TRACK 50 AUDIO
    TITLE "13:cjc029_3258"
    INDEX 01 00:53:04
  TRACK 51 AUDIO
    TITLE "0:"
    INDEX 01 00:54:05
  TRACK 52 AUDIO
    TITLE "14:cjc029_3259"
    INDEX 01 00:54:07
  TRACK 53 AUDIO
    TITLE "0:"
    INDEX 01 00:55:46
  TRACK 54 AUDIO
    TITLE "13:cjc029_3260"
    INDEX 01 00:56:29
  TRACK 55 AUDIO
    TITLE "0:"
    INDEX 01 00:57:50
  TRACK 56 AUDIO
    TITLE "14:cjc029_3261"
    INDEX 01 00:57:52
  TRACK 57 AUDIO
    TITLE "0:"
    INDEX 01 01:00:68
  TRACK 58 AUDIO
    TITLE "13:cjc029_3262"
    INDEX 01 01:01:48
  TRACK 59 AUDIO
    TITLE "0:"
    INDEX 01 01:02:57
  TRACK 60 AUDIO
    TITLE "14:cjc029_3263"
    INDEX 01 01:02:61
  TRACK 61 AUDIO
    TITLE "0:"
    INDEX 01 01:04:47
  TRACK 62 AUDIO
    TITLE "13:cjc029_3264"
    INDEX 01 01:05:30
  TRACK 63 AUDIO
    TITLE "0:"
    INDEX 01 01:06:43
  TRACK 64 AUDIO
    TITLE "14:cjc029_3265"
    INDEX 01 01:06:47
  TRACK 65 AUDIO
    TITLE "0:"
    INDEX 01 01:08:74
